<svg width="512" height="512" viewBox="0 0 512 512" fill="none" xmlns="http://www.w3.org/2000/svg">
    <rect width="512" height="512" rx="80" fill="white"/>
    <path d="M273.427 167.747C282.46 150.796 306.755 150.796 315.788 167.747L322.744 180.8C326.211 187.307 332.476 191.859 339.735 193.145L354.299 195.727C373.212 199.08 380.72 222.186 367.389 236.015L357.124 246.664C352.008 251.972 349.615 259.337 350.634 266.639L352.679 281.288C355.335 300.311 335.68 314.591 318.409 306.187L305.108 299.715C298.479 296.489 290.735 296.489 284.106 299.715L270.806 306.187C253.534 314.591 233.879 300.311 236.535 281.288L238.58 266.639C239.6 259.337 237.207 251.972 232.09 246.664L221.825 236.015C208.495 222.186 216.003 199.08 234.915 195.727L249.48 193.145C256.739 191.859 263.004 187.307 266.471 180.8L273.427 167.747Z" fill="#F2004D" fill-opacity="0.2"/>
    <path d="M256.427 198.941C245.324 178.105 215.461 178.105 204.358 198.941L197.402 211.994C194.73 217.009 189.901 220.518 184.305 221.51L169.741 224.092C146.494 228.213 137.266 256.614 153.651 273.612L163.916 284.261C167.86 288.353 169.704 294.03 168.919 299.658L166.873 314.308C163.609 337.69 187.768 355.243 208.998 344.913L222.298 338.441C227.408 335.954 233.377 335.954 238.487 338.441L251.788 344.913C273.017 355.243 297.176 337.69 293.912 314.308L291.867 299.658C291.081 294.03 292.926 288.353 296.87 284.261L307.135 273.612C323.52 256.614 314.292 228.213 291.045 224.092L276.48 221.51C270.885 220.518 266.056 217.009 263.383 211.994L256.427 198.941Z" fill="#F2004D" stroke="white" stroke-width="11" stroke-linejoin="round"/>
</svg>
