<svg width="512" height="512" viewBox="0 0 512 512" fill="none" xmlns="http://www.w3.org/2000/svg">
    <path d="M310.266 170.689L317.222 183.743C321.593 191.945 329.491 197.683 338.643 199.306L353.207 201.888C367.19 204.366 372.74 221.449 362.885 231.673L352.62 242.322C346.17 249.014 343.153 258.299 344.438 267.504L346.483 282.153C348.447 296.217 333.915 306.775 321.146 300.561L307.846 294.089C299.489 290.022 289.726 290.023 281.369 294.089L268.068 300.561C255.299 306.775 240.768 296.217 242.732 282.153L244.777 267.504C246.062 258.299 243.045 249.014 236.595 242.322L226.33 231.673C216.474 221.449 222.025 204.366 236.007 201.888L250.572 199.306C259.723 197.683 267.621 191.945 271.992 183.743L278.948 170.689C285.626 158.157 303.588 158.157 310.266 170.689Z" stroke="#F2004D" stroke-width="12.5129" stroke-linejoin="round"/>
    <path d="M209.212 201.527C218.245 184.576 242.54 184.576 251.573 201.527L258.529 214.581C261.996 221.087 268.261 225.639 275.52 226.926L290.085 229.507C308.997 232.86 316.505 255.966 303.175 269.795L292.91 280.444C287.793 285.752 285.4 293.117 286.42 300.419L288.465 315.068C291.121 334.091 271.466 348.371 254.194 339.967L240.894 333.495C234.265 330.269 226.521 330.269 219.891 333.495L206.591 339.967C189.32 348.371 169.665 334.091 172.321 315.068L174.366 300.419C175.385 293.117 172.992 285.752 167.876 280.444L157.61 269.795C144.28 255.966 151.788 232.86 170.701 229.507L185.265 226.926C192.524 225.639 198.789 221.087 202.256 214.581L209.212 201.527Z" fill="#F2004D"/>
</svg>
