<svg width="840" height="253" viewBox="0 0 840 253" fill="none" xmlns="http://www.w3.org/2000/svg">
    <path d="M457.516 120.445H438.79V33.5855H457.516V120.445ZM396.754 74.2262H366.871V56.8942H396.754V34.5816H415.282V118.652H396.754V74.2262ZM337.785 87.5739C328.356 103.91 313.746 114.203 293.957 118.453V100.722C306.707 97.0037 316.004 89.6325 321.848 78.6091C327.824 67.5856 330.813 53.2418 330.813 35.5777L349.738 36.1753C349.738 49.191 348.145 60.8785 344.957 71.2379L386.395 102.914L374.84 116.66L337.785 87.5739ZM461.7 186.188V201.527H308.899V158.098H438.192V144.949H308.5V129.609H457.516V172.84H328.223V186.188H461.7ZM659.507 121.441H635.601V203.719H615.878V33.5855H635.601V102.515H659.507V121.441ZM557.109 175.43C565.343 175.43 573.445 174.699 581.413 173.238C589.515 171.777 596.089 169.852 601.136 167.461V185.391C596.089 187.914 589.515 189.906 581.413 191.367C573.312 192.828 565.077 193.559 556.71 193.559H489.573V106.301H563.882V57.8903H489.175V39.7613H583.605V124.43H509.097V175.43H557.109ZM839.186 177.023V195.551H669.252V177.023H743.959V138.773H680.408V38.566H699.932V69.0465H808.307V38.566H827.831V138.773H764.08V177.023H839.186ZM699.932 121.043H808.307V86.7771H699.932V121.043Z" fill="#F2004D"/>
    <path d="M157.948 42.6891C164.626 30.1569 182.588 30.1569 189.266 42.6891L196.222 55.7427C200.593 63.9451 208.491 69.6834 217.643 71.3057L232.207 73.8875C246.19 76.3662 251.74 93.4488 241.885 103.673L231.62 114.322C225.17 121.014 222.153 130.299 223.438 139.504L225.483 154.153C227.447 168.217 212.915 178.775 200.146 172.561L186.846 166.089C178.489 162.022 168.726 162.022 160.369 166.089L147.068 172.561C134.299 178.775 119.768 168.217 121.732 154.153L123.777 139.504C125.062 130.299 122.045 121.014 115.595 114.322L105.33 103.673C95.4744 93.4488 101.025 76.3662 115.007 73.8875L129.572 71.3057C138.723 69.6834 146.621 63.9451 150.992 55.7427L157.948 42.6891Z" stroke="#F2004D" stroke-width="12.5129" stroke-linejoin="round"/>
    <path d="M135.427 70.9406C124.324 50.1049 94.4614 50.1049 83.3584 70.9406L76.4024 83.9942C73.7298 89.0094 68.9006 92.5181 63.3049 93.5101L48.7407 96.0919C25.4937 100.213 16.2657 128.614 32.6506 145.612L42.9158 156.261C46.8597 160.353 48.7043 166.03 47.9186 171.658L45.8734 186.308C42.609 209.69 66.7683 227.243 87.9977 216.913L101.298 210.441C106.408 207.954 112.377 207.954 117.487 210.441L130.788 216.913C152.017 227.243 176.176 209.69 172.912 186.308L170.867 171.658C170.081 166.03 171.926 160.353 175.87 156.261L186.135 145.612C202.52 128.614 193.292 100.213 170.045 96.0919L155.48 93.5101C149.885 92.5181 145.056 89.0095 142.383 83.9942L135.427 70.9406Z" fill="#F2004D" stroke="white" stroke-width="11" stroke-linejoin="round"/>
</svg>
